HIERARCHY
ROOT Hips
{
	OFFSET 0.000000 88.474243 0.000000
	CHANNELS 6 Xposition Yposition Zposition Zrotation Yrotation Xrotation 
	JOINT Hips_Spine
	{
		OFFSET 0.000000 0.000000 0.000000
		CHANNELS 3 Zrotation Yrotation Xrotation
		JOINT Spine
		{
			OFFSET 0.005100 8.711998 -0.691000
			CHANNELS 3 Zrotation Yrotation Xrotation
			JOINT Spine1
			{
				OFFSET -0.009200 8.660301 -1.275000
				CHANNELS 3 Zrotation Yrotation Xrotation
				JOINT Spine2
				{
					OFFSET 0.006300 9.852501 -1.857000
					CHANNELS 3 Zrotation Yrotation Xrotation
					JOINT Spine2_Neck
					{
						OFFSET 0.000000 0.000000 0.000000
						CHANNELS 3 Zrotation Yrotation Xrotation
						JOINT Neck
						{
							OFFSET 0.016300 11.420799 -0.263300
							CHANNELS 3 Zrotation Yrotation Xrotation
							End Site #name: Head
							{
								OFFSET -0.019200 9.262405 2.362500
							}
						}
					}
					JOINT Spine2_LeftShoulder
					{
						OFFSET 0.000000 0.000000 0.000000
						CHANNELS 3 Zrotation Yrotation Xrotation
						JOINT LeftShoulder
						{
							OFFSET 5.616900 6.732201 -0.345700
							CHANNELS 3 Zrotation Yrotation Xrotation
							JOINT LeftArm
							{
								OFFSET 10.664888 -0.183372 -2.440700
								CHANNELS 3 Zrotation Yrotation Xrotation
								JOINT LeftForeArm
								{
									OFFSET 27.459126 0.000000 0.000000
									CHANNELS 3 Zrotation Yrotation Xrotation
									End Site #name: LeftHand
									{
										OFFSET 21.306858 0.000000 0.000000
									}
								}
							}
						}
					}
					JOINT Spine2_RightShoulder
					{
						OFFSET 0.000000 0.000000 0.000000
						CHANNELS 3 Zrotation Yrotation Xrotation
						JOINT RightShoulder
						{
							OFFSET -5.580300 6.737503 -0.344400
							CHANNELS 3 Zrotation Yrotation Xrotation
							JOINT RightArm
							{
								OFFSET -10.679335 -0.188484 -2.383900
								CHANNELS 3 Zrotation Yrotation Xrotation
								JOINT RightForeArm
								{
									OFFSET -27.503529 0.000000 0.000000
									CHANNELS 3 Zrotation Yrotation Xrotation
									End Site #name: RightHand
									{
										OFFSET -21.306808 0.000000 0.000000
									}
								}
							}
						}
					}
				}
			}
		}
	}
	JOINT Hips_LeftUpLeg
	{
		OFFSET 0.000000 0.000000 0.000000
		CHANNELS 3 Zrotation Yrotation Xrotation
		JOINT LeftUpLeg
		{
			OFFSET 6.857700 -6.739601 0.312100
			CHANNELS 3 Zrotation Yrotation Xrotation
			JOINT LeftLeg
			{
				OFFSET -0.367590 -34.731552 -4.572400
				CHANNELS 3 Zrotation Yrotation Xrotation
				End Site #name: LeftFoot
				{
					OFFSET 0.367590 -34.656704 -6.067400
				}
			}
		}
	}
	JOINT Hips_RightUpLeg
	{
		OFFSET 0.000000 0.000000 0.000000
		CHANNELS 3 Zrotation Yrotation Xrotation
		JOINT RightUpLeg
		{
			OFFSET -6.876100 -6.733299 0.301000
			CHANNELS 3 Zrotation Yrotation Xrotation
			JOINT RightLeg
			{
				OFFSET 0.347353 -34.795158 -4.515900
				CHANNELS 3 Zrotation Yrotation Xrotation
				End Site #name: RightFoot
				{
					OFFSET -0.347353 -34.589367 -6.070300
				}
			}
		}
	}
}
MOTION
Frames: 12
Frame Time: 0.041667
0.147387 0.041778 0.005330 0.884795 17.629906 -6.585666 -0.000000 0.000000 0.000000 -1.125857 -1.079894 1.212143 -0.250725 -1.214433 -0.202879 0.000000 0.000000 0.000000 -0.270985 -0.769347 -0.911015 3.069726 0.027468 -4.764144 0.225248 -1.666596 -2.010557 -16.063601 -10.650600 2.403538 -46.929937 -3.621955 19.782853 0.635037 -28.015055 4.904695 -0.410866 -0.933733 0.263426 14.325571 10.545753 3.882328 58.150781 -5.897242 -4.222962 -0.546180 42.981722 0.761165 0.000000 0.000000 0.000000 -9.708591 15.307664 -4.199723 -1.175151 -0.257564 21.269986 0.000000 0.000000 0.000000 -3.309906 11.018058 -8.117793 6.007259 0.019472 -0.903479 
0.648381 -0.020853 0.208736 2.643625 18.829364 -7.203632 -0.000000 0.000000 0.000000 -3.984709 -1.843671 0.598991 0.127179 -1.085064 -0.558338 0.000000 0.000000 0.000000 -0.305929 -0.808869 -1.591864 3.986107 -1.041627 -3.399167 -0.497051 -1.174336 -2.392227 -21.696465 -5.974330 0.674169 -42.178676 -2.947042 12.314656 -0.613744 -22.880610 2.825422 -0.303457 -1.091821 -0.321506 15.368167 7.645295 1.748872 60.273759 -2.011910 -5.463362 -0.286792 40.908049 -0.784505 0.000000 0.000000 -0.000000 -12.324664 13.372622 -2.006434 -1.038748 2.713600 20.186123 0.000000 0.000000 0.000000 -6.782119 12.278171 -7.872876 6.017512 -0.050876 0.857902 
0.951765 -0.067776 0.298425 3.929610 17.834804 -7.436684 -0.000000 0.000000 0.000000 -4.849570 -2.936240 0.800151 0.119381 -0.736144 -0.795866 0.000000 0.000000 0.000000 0.233656 -1.121050 -1.739525 3.931968 -1.215041 -4.513596 -0.542122 -1.131348 -2.294684 -25.783934 -5.281736 0.322616 -41.400947 4.903407 5.118568 -0.919950 -23.463935 3.440937 -0.143297 -1.020715 -0.400738 14.539272 6.799630 2.004295 59.948615 0.095879 -5.856736 0.014606 35.787771 -0.664698 0.000000 0.000000 -0.000000 -14.187941 12.684716 -0.740849 -1.707272 3.022396 19.323523 0.000000 0.000000 0.000000 -8.684208 12.967191 -10.253368 5.415626 -1.458452 6.073068 
1.261866 -0.141150 0.321403 4.687872 15.823059 -7.124324 -0.000000 0.000000 -0.000000 -5.169457 -2.721290 1.499052 0.259879 -0.709830 -0.851529 0.000000 0.000000 0.000000 0.583067 -1.210867 -1.726922 3.795738 -1.922322 -3.900940 -0.321475 -1.158494 -2.199539 -28.144001 -4.459990 1.116385 -40.457600 6.128927 4.560651 -0.521273 -23.337985 5.903125 0.054525 -0.980033 -0.393607 13.183382 6.570201 1.915220 60.223931 2.376750 -5.715981 0.164519 37.179042 -0.614976 0.000000 0.000000 -0.000000 -15.387937 12.677350 -0.870898 -1.963636 3.272351 19.236995 0.000000 0.000000 0.000000 -10.033238 12.391292 -13.343198 4.648356 -1.772242 12.211409 
1.613310 -0.189328 0.319295 5.061130 14.738214 -6.654762 -0.000000 0.000000 -0.000000 -5.360109 -2.279371 1.256062 0.331873 -0.753324 -0.835203 0.000000 0.000000 0.000000 0.668428 -1.268567 -1.821145 3.362237 -2.555805 -2.739895 -0.201007 -1.254150 -2.065918 -30.630546 -3.450179 1.983769 -37.339380 4.794811 5.790970 0.152501 -19.194068 8.229487 0.144551 -1.000161 -0.335612 11.829359 6.528429 1.810105 61.162153 3.199754 -6.567063 0.275756 38.710848 -0.677170 0.000000 0.000000 -0.000000 -16.339151 12.670666 -1.211155 -1.983247 3.255624 19.287343 0.000000 0.000000 0.000000 -11.253584 11.645779 -15.652075 4.461052 -1.110216 16.742605 
1.995374 -0.213655 0.304040 5.174840 14.176029 -6.377208 -0.000000 0.000000 -0.000000 -5.546013 -2.028136 0.665593 0.328755 -0.778917 -0.793155 0.000000 0.000000 0.000000 0.580967 -1.301485 -1.851479 3.005456 -2.714652 -1.799699 -0.184858 -1.341523 -1.977625 -32.562221 -2.761074 2.534908 -34.908094 3.554302 6.947908 0.754736 -13.933300 9.601184 0.129037 -1.038461 -0.347202 10.831287 6.487279 1.678237 62.105713 3.410614 -6.717912 0.392449 38.768504 -0.694831 0.000000 0.000000 -0.000000 -16.906263 12.757866 -1.540804 -1.869393 3.190534 19.538096 0.000000 0.000000 0.000000 -12.130732 10.954410 -16.820703 4.934869 0.369203 19.525447 
2.389714 -0.225556 0.285212 5.072278 14.131685 -6.261316 -0.000000 0.000000 -0.000000 -5.481934 -1.722468 0.084800 0.234244 -0.723255 -0.808331 0.000000 0.000000 0.000000 0.398755 -1.293702 -1.870333 2.802291 -2.667554 -1.224712 -0.274419 -1.339114 -1.960711 -34.022822 -2.070440 2.766349 -33.004618 2.630645 7.554106 1.204235 -9.047728 10.227218 0.006918 -1.046591 -0.405533 10.288659 6.340211 1.552546 63.053340 2.446168 -7.099170 0.489806 38.404613 -0.717615 0.000000 0.000000 -0.000000 -17.134420 12.741969 -1.928644 -1.744162 3.203124 20.014766 0.000000 0.000000 0.000000 -12.717739 10.270380 -17.226789 5.433395 1.712353 21.058549 
2.775499 -0.226527 0.277923 4.850173 14.774645 -6.168872 -0.000000 0.000000 -0.000000 -5.560949 -1.353861 -0.335412 0.065410 -0.626258 -0.841007 0.000000 0.000000 0.000000 0.187144 -1.249449 -1.906991 2.612946 -2.545678 -0.878395 -0.435698 -1.281906 -2.002077 -35.152493 -1.483094 2.820405 -31.612778 1.667714 7.688038 1.456962 -5.531454 10.233162 -0.157722 -0.982705 -0.441584 10.038162 6.239046 1.497991 64.201137 1.256960 -6.938122 0.566390 37.575268 -0.695685 0.000000 0.000000 -0.000000 -17.143294 12.613002 -2.369129 -1.592826 3.295992 20.495153 0.000000 0.000000 0.000000 -13.138837 9.336901 -17.280970 5.616869 2.531321 21.842670 
3.128859 -0.215316 0.295090 4.529450 15.977636 -6.053853 -0.000000 0.000000 -0.000000 -5.936741 -0.984433 -0.478732 -0.134334 -0.490600 -0.931909 0.000000 0.000000 0.000000 -0.075672 -1.177000 -1.982876 2.462849 -2.399165 -0.569880 -0.638564 -1.200012 -2.121995 -35.909764 -1.029433 2.830863 -30.803424 0.854340 7.614620 1.455729 -3.852867 9.866780 -0.325532 -0.877336 -0.470322 10.004631 6.220460 1.496672 65.584065 0.725387 -6.427815 0.665515 35.797963 -0.640390 0.000000 0.000000 -0.000000 -17.031904 12.445051 -2.834268 -1.354745 3.431239 20.885330 0.000000 0.000000 0.000000 -13.473808 8.114268 -16.963280 5.594906 2.972874 22.007162 
3.444111 -0.197778 0.330495 4.173759 17.248942 -5.905229 -0.000000 0.000000 -0.000000 -6.559242 -0.587017 -0.378378 -0.367739 -0.324971 -1.090894 0.000000 0.000000 0.000000 -0.346107 -1.093043 -2.097396 2.449446 -2.194141 -0.361848 -0.859911 -1.102402 -2.259310 -36.275508 -0.647734 2.810854 -30.518679 0.273166 7.442033 1.337917 -3.408184 9.382449 -0.630078 -0.705111 -0.528268 9.913138 6.308105 1.457962 66.454264 0.396535 -6.211105 0.740232 33.806798 -0.593562 0.000000 0.000000 -0.000000 -16.841073 12.354921 -3.316898 -1.074655 3.627500 21.201851 0.000000 0.000000 0.000000 -13.716105 6.533913 -16.543209 5.460018 3.200712 21.889148 
3.711729 -0.174225 0.375296 3.813261 18.381976 -5.740499 -0.000000 0.000000 -0.000000 -7.215103 -0.278456 -0.164438 -0.594228 -0.164090 -1.254023 0.000000 0.000000 0.000000 -0.641017 -0.993366 -2.200563 2.471781 -2.015994 -0.278695 -1.084394 -0.989460 -2.380431 -36.290859 -0.330661 2.765500 -30.567066 -0.194877 7.206521 1.179212 -3.805588 8.940702 -1.019472 -0.502834 -0.541759 9.807155 6.400595 1.411903 66.873876 0.436952 -5.839534 0.783962 32.315119 -0.579128 0.000000 0.000000 -0.000000 -16.627887 12.331810 -3.686614 -0.843116 3.835173 21.276785 0.000000 0.000000 0.000000 -13.891167 4.883113 -16.122584 5.268100 3.388392 21.479226 
3.923975 -0.144848 0.421942 3.495685 19.174757 -5.575092 -0.000000 0.000000 -0.000000 -7.906505 -0.056249 0.105389 -0.829111 -0.008163 -1.354840 0.000000 0.000000 0.000000 -0.911704 -0.892709 -2.239009 2.620722 -1.825377 -0.441768 -1.290974 -0.883963 -2.453223 -36.111872 -0.039683 2.715553 -30.917332 -0.591104 7.082096 1.055063 -4.529268 8.608762 -1.376278 -0.325089 -0.520876 9.725754 6.418817 1.380899 66.867603 0.832569 -5.553236 0.805457 31.598372 -0.577610 0.000000 0.000000 -0.000000 -16.409161 12.373470 -3.949582 -0.650312 4.037335 21.165346 0.000000 0.000000 0.000000 -13.877679 3.532612 -15.781868 5.030215 3.649437 20.902527 
